<svg width="80" height="79" viewBox="0 0 80 79" fill="none" xmlns="http://www.w3.org/2000/svg">
<path fill-rule="evenodd" clip-rule="evenodd" d="M20.0914 6.57349C16.6045 6.57349 13.2605 7.95863 10.7949 10.4242C8.32936 12.8898 6.94421 16.2338 6.94421 19.7207V59.1622C6.94421 62.6491 8.32936 65.9931 10.7949 68.4587C13.2605 70.9243 16.6045 72.3094 20.0914 72.3094H59.5329C63.0198 72.3094 66.3638 70.9243 68.8294 68.4587C71.295 65.9931 72.6801 62.6491 72.6801 59.1622V19.7207C72.6801 16.2338 71.295 12.8898 68.8294 10.4242C66.3638 7.95863 63.0198 6.57349 59.5329 6.57349H20.0914ZM13.5178 19.7207C13.5178 17.9772 14.2104 16.3052 15.4432 15.0724C16.676 13.8397 18.348 13.1471 20.0914 13.1471H59.5329C61.2764 13.1471 62.9484 13.8397 64.1812 15.0724C65.414 16.3052 66.1065 17.9772 66.1065 19.7207V59.1622C66.1065 60.9056 65.414 62.5777 64.1812 63.8105C62.9484 65.0432 61.2764 65.7358 59.5329 65.7358H20.0914C18.348 65.7358 16.676 65.0432 15.4432 63.8105C14.2104 62.5777 13.5178 60.9056 13.5178 59.1622V19.7207ZM29.9518 36.1546C29.9518 35.2829 29.6055 34.4469 28.9891 33.8305C28.3727 33.2141 27.5367 32.8679 26.665 32.8679C25.7933 32.8679 24.9573 33.2141 24.3409 33.8305C23.7245 34.4469 23.3782 35.2829 23.3782 36.1546V55.8754C23.3782 56.7471 23.7245 57.5831 24.3409 58.1995C24.9573 58.8159 25.7933 59.1622 26.665 59.1622C27.5367 59.1622 28.3727 58.8159 28.9891 58.1995C29.6055 57.5831 29.9518 56.7471 29.9518 55.8754V36.1546ZM31.5952 24.6509C31.5952 25.9584 31.0758 27.2124 30.1512 28.137C29.2266 29.0616 27.9726 29.5811 26.665 29.5811C25.3574 29.5811 24.1034 29.0616 23.1788 28.137C22.2542 27.2124 21.7348 25.9584 21.7348 24.6509C21.7348 23.3433 22.2542 22.0893 23.1788 21.1647C24.1034 20.2401 25.3574 19.7207 26.665 19.7207C27.9726 19.7207 29.2266 20.2401 30.1512 21.1647C31.0758 22.0893 31.5952 23.3433 31.5952 24.6509ZM39.8122 32.8679C40.9297 32.8679 41.9157 33.4266 42.5073 34.2746C44.2014 33.3514 46.0999 32.8677 48.0292 32.8679C55.1286 32.8679 59.5329 39.1982 59.5329 44.605V55.8754C59.5329 56.7471 59.1867 57.5831 58.5703 58.1995C57.9539 58.8159 57.1179 59.1622 56.2462 59.1622C55.3744 59.1622 54.5384 58.8159 53.922 58.1995C53.3056 57.5831 52.9594 56.7471 52.9594 55.8754V44.6017C52.9594 42.0775 50.7901 39.4382 48.0292 39.4382C46.3069 39.4382 44.4038 40.3749 43.099 42.6033V55.8754C43.099 56.7471 42.7527 57.5831 42.1363 58.1995C41.5199 58.8159 40.6839 59.1622 39.8122 59.1622C38.9405 59.1622 38.1045 58.8159 37.4881 58.1995C36.8717 57.5831 36.5254 56.7471 36.5254 55.8754V36.1546C36.5254 35.2829 36.8717 34.4469 37.4881 33.8305C38.1045 33.2141 38.9405 32.8679 39.8122 32.8679Z" fill="black"/>
</svg>
