<svg width="80" height="79" viewBox="0 0 80 79" fill="none" xmlns="http://www.w3.org/2000/svg">
<path fill-rule="evenodd" clip-rule="evenodd" d="M12.244 39.4418C12.246 33.4977 14.1438 27.7091 17.6615 22.9177C21.1792 18.1262 26.1334 14.5816 31.804 12.7991C37.4745 11.0166 43.5658 11.0892 49.1923 13.0063C54.8187 14.9234 59.6871 18.5851 63.0896 23.459C66.4921 28.3329 68.2515 34.165 68.1118 40.1075C67.9722 46.05 65.9408 51.793 62.3131 56.5017C58.6854 61.2104 53.6504 64.6394 47.9401 66.2901C42.2298 67.9407 36.1419 67.7271 30.5613 65.6803C32.4575 60.5976 34.2971 55.494 36.0798 50.3704C37.9665 51.718 40.402 52.589 43.4686 52.589C49.8285 52.589 56.5336 48.3983 58.1934 40.086C60.2871 29.6504 51.9288 19.721 40.1818 19.721C35.2417 19.721 30.3838 21.7062 26.7486 24.855C23.1069 28.0136 20.461 32.5625 20.461 37.7984C20.461 40.3456 21.2301 43.1821 23.0608 45.049C23.6812 45.6597 24.5167 46.0022 25.3872 46.0029C26.2578 46.0035 27.0937 45.6621 27.7149 45.0523C28.3191 44.4486 28.6645 43.6334 28.678 42.7794C28.6915 41.9254 28.372 41.0996 27.7873 40.4771C25.2038 37.2561 28.609 31.9446 31.0543 29.8246C33.595 27.6225 36.9508 26.2946 40.1818 26.2946C48.1588 26.2946 52.9477 32.7992 51.7513 38.7976C50.7521 43.7738 46.9657 46.0154 43.4686 46.0154C40.78 46.0154 39.3338 44.8814 38.4069 43.4122C38.9131 41.8214 39.3436 40.3752 39.6526 39.1985C40.2837 36.7762 40.6649 33.8542 38.4858 32.0366C36.8654 30.689 34.9525 30.9848 33.7824 31.5732C31.6032 32.6578 30.3214 35.2018 30.3214 37.7984C30.3214 39.2479 30.5482 41.496 31.3633 43.8198C29.2423 50.1455 27.0091 56.433 24.6648 62.6794C20.8411 60.1283 17.7066 56.6724 15.5398 52.6185C13.3729 48.5646 12.2408 44.0384 12.244 39.4418V39.4418ZM40.1818 4.93042C21.1216 4.93042 5.67041 20.3816 5.67041 39.4418C5.67041 58.5019 21.1216 73.9531 40.1818 73.9531C59.2419 73.9531 74.6931 58.5019 74.6931 39.4418C74.6931 20.3816 59.2419 4.93042 40.1818 4.93042Z" fill="black"/>
</svg>
